<svg aria-hidden="true" style="position: absolute; width: 0; height: 0; overflow: hidden;" version="1.1"
    xmlns="http://www.w3.org/2000/svg" xmlns:xlink="http://www.w3.org/1999/xlink">
    <defs>
        <linearGradient id="accent-gradient" x1="0%" y1="0%" x2="100%" y2="0%">
            <stop offset="0%" stop-color="var(--accent-gradient-color1)"></stop>
            <stop offset="100%" stop-color="var(--accent-gradient-color2)"></stop>
        </linearGradient>
        <symbol id="icon-burger-line" viewBox="0 0 80 24">
            <path
                d="M68 8c2.2 0 4 1.8 4 4s-1.8 4-4 4h-56c-2.2 0-4-1.8-4-4s1.8-4 4-4zM68 0h-56c-6.616 0-12 5.384-12 12s5.384 12 12 12h56c6.616 0 12-5.384 12-12s-5.384-12-12-12z">
            </path>
        </symbol>
        <symbol id="icon-bag" viewBox="0 0 48 48">
            <path
                d="M0 44c0 2.21 1.79 4 4 4h40c2.21 0 4-1.79 4-4l-0-25c0-2.21-1.79-4-4-4h-4v-4.5c0-5.8-4.7-10.5-10.5-10.5-2.37 0-4.55 0.78-6.3 2.1-1.42-0.7-3.010-1.1-4.7-1.1-5.8 0-10.5 4.7-10.5 10.5l0.010 3.5h-4.010c-2.21 0-4 1.79-4 4v25zM35 15h-10.99l-0.010-4.5c0-3.040 2.46-5.5 5.5-5.5s5.5 2.46 5.5 5.5v4.5zM19.010 15h-6l-0.010-3.5c0-3.040 2.46-5.5 5.5-5.5 0.49 0 0.97 0.061 1.42 0.189-0.59 1.311-0.92 2.771-0.92 4.311l0.010 4.5zM19 21.5c0-1.38 1.12-2.5 2.5-2.5s2.5 1.12 2.5 2.5-1.12 2.5-2.5 2.5-2.5-1.12-2.5-2.5zM35 21.5c0-1.38 1.12-2.5 2.5-2.5s2.5 1.12 2.5 2.5-1.12 2.5-2.5 2.5-2.5-1.12-2.5-2.5zM9 22v19c0 1.1-0.9 2-2 2s-2-0.9-2-2l-0-19c0-1.1 0.9-2 2-2s2 0.9 2 2z">
            </path>
        </symbol>
        <symbol id="icon-arrow-right" viewBox="0 0 69 24">
            <path
                d="M68.981 18.528c0.308-0.308 0.308-0.807 0-1.115l-5.017-5.017c-0.308-0.308-0.807-0.308-1.115 0s-0.308 0.807 0 1.115l4.46 4.459-4.46 4.459c-0.308 0.308-0.308 0.807 0 1.115s0.807 0.308 1.115 0l5.017-5.017zM33.461 8.796c-0.255-0.353-0.748-0.432-1.101-0.178s-0.432 0.748-0.177 1.101l1.278-0.923zM49.862 17.97v0zM32.183 9.719c0.255 0.353 0.748 0.432 1.101 0.178s0.432-0.748 0.177-1.101l-1.278 0.923zM2.636 4.422c0.416-0.127 0.651-0.567 0.524-0.984s-0.567-0.651-0.984-0.524l0.46 1.508zM7.247 1.368c-0.416 0.127-0.651 0.567-0.524 0.984s0.567 0.651 0.984 0.524l-0.46-1.508zM12.708 1.567c0.43-0.066 0.725-0.469 0.659-0.899s-0.469-0.725-0.899-0.659l0.24 1.558zM19.716 0.114c-0.428-0.079-0.839 0.205-0.918 0.633s0.205 0.839 0.633 0.918l0.285-1.551zM24.909 3.509c0.389 0.196 0.863 0.040 1.059-0.348s0.040-0.863-0.348-1.059l-0.711 1.407zM31.457 6.401c-0.303-0.313-0.802-0.321-1.115-0.019s-0.321 0.802-0.019 1.115l1.133-1.096zM33.679 11.569c0.292 0.323 0.79 0.348 1.113 0.057s0.348-0.79 0.057-1.113l-1.17 1.057zM38.744 13.854c-0.364-0.239-0.853-0.138-1.092 0.225s-0.138 0.853 0.225 1.092l0.866-1.317zM42.108 17.334c0.407 0.155 0.862-0.050 1.017-0.456s-0.050-0.862-0.456-1.017l-0.561 1.474zM47.658 17.062c-0.433-0.047-0.822 0.265-0.869 0.698s0.265 0.822 0.698 0.869l0.172-1.567zM54.148 18.759c0.435 0 0.788-0.353 0.788-0.788s-0.353-0.788-0.788-0.788v1.577zM64.137 17.182c-0.435 0-0.788 0.353-0.788 0.788s0.353 0.788 0.788 0.788v-1.577zM0.46 5.086l2.176-0.663-0.46-1.508-2.176 0.663 0.46 1.508zM7.707 2.876l2.176-0.663-0.46-1.508-2.176 0.663 0.46 1.508zM9.883 2.213c0.935-0.285 1.879-0.499 2.825-0.645l-0.24-1.558c-1.020 0.157-2.037 0.388-3.045 0.695l0.46 1.508zM19.432 1.665c1.904 0.35 3.75 0.971 5.478 1.844l0.711-1.407c-1.862-0.941-3.851-1.61-5.904-1.987l-0.285 1.551zM30.323 7.497c0.665 0.688 1.287 1.43 1.86 2.222l1.278-0.923c-0.617-0.854-1.287-1.653-2.004-2.395l-1.133 1.096zM32.183 9.719c0.467 0.647 0.967 1.264 1.496 1.85l1.17-1.057c-0.491-0.543-0.954-1.116-1.388-1.716l-1.278 0.923zM37.878 15.171c1.327 0.873 2.746 1.598 4.23 2.163l0.561-1.474c-1.377-0.524-2.693-1.197-3.924-2.007l-0.866 1.317zM47.486 18.629c0.784 0.086 1.577 0.13 2.376 0.13v-1.577c-0.741 0-1.476-0.041-2.204-0.12l-0.172 1.567zM49.862 18.759h4.286v-1.577h-4.286v1.577zM64.137 18.759h4.286v-1.577h-4.286v1.577z">
            </path>
        </symbol>
        <symbol id="icon-play-video" viewBox="0 0 18 18">
            <path
                d="M5 4.914l6.915 4.086-6.915 4.086v-8.172zM4 2c-0.552 0-1 0.448-1 1v12c0 0.552 0.448 1 1 1l10.569-6.246c0.267-0.158 0.431-0.444 0.431-0.754s-0.164-0.597-0.431-0.754l-10.569-6.246z">
            </path>
        </symbol>
    </defs>
</svg>