<svg aria-hidden="true" style="position: absolute; width: 0; height: 0; overflow: hidden;" version="1.1" xmlns="http://www.w3.org/2000/svg" xmlns:xlink="http://www.w3.org/1999/xlink">
<defs>
<symbol id="icon-burger-line" viewBox="0 0 80 24">
<path d="M68 8c2.2 0 4 1.8 4 4s-1.8 4-4 4h-56c-2.2 0-4-1.8-4-4s1.8-4 4-4zM68 0h-56c-6.616 0-12 5.384-12 12s5.384 12 12 12h56c6.616 0 12-5.384 12-12s-5.384-12-12-12z"></path>
</symbol>
<symbol id="icon-bag" viewBox="0 0 48 48">
<path d="M0 44c0 2.21 1.79 4 4 4h40c2.21 0 4-1.79 4-4l-0-25c0-2.21-1.79-4-4-4h-4v-4.5c0-5.8-4.7-10.5-10.5-10.5-2.37 0-4.55 0.78-6.3 2.1-1.42-0.7-3.010-1.1-4.7-1.1-5.8 0-10.5 4.7-10.5 10.5l0.010 3.5h-4.010c-2.21 0-4 1.79-4 4v25zM35 15h-10.99l-0.010-4.5c0-3.040 2.46-5.5 5.5-5.5s5.5 2.46 5.5 5.5v4.5zM19.010 15h-6l-0.010-3.5c0-3.040 2.46-5.5 5.5-5.5 0.49 0 0.97 0.061 1.42 0.189-0.59 1.311-0.92 2.771-0.92 4.311l0.010 4.5zM19 21.5c0-1.38 1.12-2.5 2.5-2.5s2.5 1.12 2.5 2.5-1.12 2.5-2.5 2.5-2.5-1.12-2.5-2.5zM35 21.5c0-1.38 1.12-2.5 2.5-2.5s2.5 1.12 2.5 2.5-1.12 2.5-2.5 2.5-2.5-1.12-2.5-2.5zM9 22v19c0 1.1-0.9 2-2 2s-2-0.9-2-2l-0-19c0-1.1 0.9-2 2-2s2 0.9 2 2z"></path>
</symbol>
</defs>
</svg>
